<?xml version="1.0" encoding="UTF-8" standalone="no"?>
<svg
   xmlns:dc="http://purl.org/dc/elements/1.1/"
   xmlns:cc="http://creativecommons.org/ns#"
   xmlns:rdf="http://www.w3.org/1999/02/22-rdf-syntax-ns#"
   xmlns:svg="http://www.w3.org/2000/svg"
   xmlns="http://www.w3.org/2000/svg"
   xmlns:sodipodi="http://sodipodi.sourceforge.net/DTD/sodipodi-0.dtd"
   xmlns:inkscape="http://www.inkscape.org/namespaces/inkscape"
   version="1.1"
   id="Layer_1"
   x="0px"
   y="0px"
   width="868"
   height="110"
   viewBox="0 0 868 110"
   enable-background="new 0 0 788 1128"
   xml:space="preserve">
<rect
   x="359.06479"
   y="86.36985"
   width="21.048967"
   height="21.084818"
   id="rect431"
   style="fill:#0099da" /><rect
   x="-1.5609317e-05"
   y="86.625313"
   width="21.044487"
   height="21.084818"
   id="rect433"
   style="fill:#0099da" /><rect
   x="741.71515"
   y="15.501437"
   width="25.104605"
   height="91.957596"
   id="rect435"
   style="fill:#d71920" /><path
   d="m 838.83527,61.731186 c 0,9.908296 -3.2938,17.782054 -8.8731,22.097607 l 14.70784,17.526617 7.3584,8.64007 15.97158,-13.4665 -10.39676,-12.444749 c 3.04732,-6.605531 4.56651,-14.22385 4.56651,-22.348564 0,-27.430431 -17.24429,-47.247023 -40.5698,-48.51525 v 22.85944 c 10.39229,1.012788 17.23533,10.921085 17.23533,25.651329"
   id="path437"
   style="fill:#d71920" /><path
   d="m 825.6511,86.11877 c -1.26823,0.506395 -2.79189,0.761832 -4.05116,1.01727 h -0.25991 c -0.76184,0 -1.52367,0 -2.28102,0 -0.76183,0 -1.52366,0 -2.28549,0 h -0.25544 c -10.39229,-1.01727 -17.24429,-10.925566 -17.24429,-25.400373 0,-14.730244 6.84752,-24.638541 17.24429,-25.660292 V 13.215936 c -23.3255,1.268226 -40.57427,21.084819 -40.57427,48.51525 0,27.174993 17.24877,46.987104 40.57427,48.264294 h 5.07738 c 6.83857,-0.25544 13.43961,-2.53645 19.00995,-5.8437 L 825.6511,86.11877"
   id="path439"
   style="fill:#d71920" /><rect
   x="13.690519"
   y="15.501437"
   width="65.167999"
   height="21.084818"
   id="rect441" /><rect
   x="34.739582"
   y="40.650852"
   width="25.104605"
   height="66.803696"
   id="rect443" /><path
   d="M 349.42996,49.537394 C 354.50286,37.097126 356.52844,1.2775816 317.47783,0.00487409 V 23.124233 c 10.14581,1.268226 14.96328,13.462018 4.56651,26.668598 -15.46967,19.05028 -43.36168,37.338728 -43.36168,37.338728 v 20.322991 h 73.53471 V 86.369727 h -34.99498 c 0.004,0 23.58542,-16.002952 32.20757,-36.832333"
   id="path445" /><path
   d="m 301.50177,43.442738 h -22.81911 c 0,0 0,-3.302765 0,-7.873757 0,-8.891027 4.05563,-34.040443 33.72227,-35.56858827341 V 23.370708 c -9.12854,1.779101 -11.15412,9.652858 -10.90764,13.211062 0.25991,2.796371 0.004,6.860968 0.004,6.860968"
   id="path447" /><rect
   x="148.59302"
   y="15.501437"
   width="25.109085"
   height="91.957596"
   id="rect449" /><rect
   x="178.51509"
   y="86.36985"
   width="25.610998"
   height="21.084818"
   id="rect451" /><rect
   x="210.46724"
   y="15.501437"
   width="25.104605"
   height="91.957596"
   id="rect453" /><rect
   x="240.38933"
   y="15.501437"
   width="25.610998"
   height="21.084818"
   id="rect455" /><rect
   x="240.38933"
   y="86.36985"
   width="25.610998"
   height="21.084818"
   id="rect457" /><rect
   x="240.38933"
   y="51.316521"
   width="25.610998"
   height="21.084818"
   id="rect459" /><rect
   x="83.425049"
   y="15.501437"
   width="25.109085"
   height="91.957596"
   id="rect461" /><rect
   x="113.34713"
   y="15.501437"
   width="25.610998"
   height="21.084818"
   id="rect463" /><rect
   x="113.34713"
   y="86.36985"
   width="25.610998"
   height="21.084818"
   id="rect465" /><rect
   x="113.34713"
   y="51.316521"
   width="25.610998"
   height="21.084818"
   id="rect467" /><rect
   x="556.85889"
   y="15.501437"
   width="25.104605"
   height="91.957596"
   id="rect469" /><rect
   x="626.58887"
   y="15.501437"
   width="25.360041"
   height="91.957596"
   id="rect471" /><polyline
   points="608.782,1012.67 607.877,1012.67 607.877,1023.666 609.574,1033.189 613.535,1033.189 615.685,1023.666   615.685,1012.67 614.78,1012.67 611.668,1024.063 608.782,1012.67 "
   id="polyline473"
   transform="matrix(4.4813643,0,0,4.4813643,-2137.3373,-4522.6417)" /><path
   d="m 504.6196,87.131559 c -10.39676,-1.01727 -17.24429,-10.925566 -17.24429,-25.400373 0,-14.730244 6.84305,-24.638541 17.24429,-25.660292 V 13.211455 c -23.32998,1.268226 -40.57427,21.084819 -40.57427,48.51525 0,27.174993 17.24429,46.987105 40.57427,48.264295 V 87.131559"
   id="path475" /><path
   d="m 509.43707,13.215936 v 22.859439 c 10.39228,1.021751 17.49973,10.925567 17.49973,25.660292 0,14.474807 -7.10745,24.383103 -17.49973,25.400373 v 22.86392 c 23.58542,-1.27271 40.82523,-21.084818 40.82523,-48.264293 0.004,-27.434912 -17.23981,-47.251505 -40.82523,-48.519731"
   id="path477" /><path
   d="m 424.48833,87.131559 c -10.39677,-1.01727 -17.24429,-10.925566 -17.24429,-25.400373 0,-14.730244 6.84304,-24.638541 17.24429,-25.660292 V 13.211455 c -23.32998,1.268226 -40.56979,21.084819 -40.56979,48.51525 0,27.174993 17.23981,46.987105 40.56979,48.264295 V 87.131559"
   id="path479" /><polyline
   points="635.66,1012.67 633.396,1021.682 633.396,1033.189 636.113,1033.189 641.262,1012.67 635.66,1012.67 "
   id="polyline481"
   transform="matrix(4.4813643,0,0,4.4813643,-2137.3373,-4522.6417)" /><polyline
   points="632.039,1021.682 629.719,1012.67 624.173,1012.67 629.266,1033.189 632.039,1033.189 632.039,1021.682 "
   id="polyline483"
   transform="matrix(4.4813643,0,0,4.4813643,-2137.3373,-4522.6417)" /><path
   d="m 446.29465,49.286437 16.99333,-14.479288 c -6.84752,-12.700186 -19.27883,-20.8249 -33.72675,-21.586732 v 22.85944 c 7.09848,0.75735 13.43961,5.58378 16.73342,13.20658"
   id="path485" /><path
   d="m 446.29465,73.924978 c -3.54924,7.61832 -9.63494,12.444749 -16.73342,13.206581 v 22.863921 c 14.4524,-0.76183 26.87923,-8.88655 33.72675,-21.586732 l -16.99333,-14.48377"
   id="path487" />
</svg>